<?xml version="1.0" encoding="utf-8"?>
<!-- Generator: Adobe Illustrator 25.0.1, SVG Export Plug-In . SVG Version: 6.00 Build 0)  -->
<svg version="1.1" id="레이어_1" xmlns="http://www.w3.org/2000/svg" xmlns:xlink="http://www.w3.org/1999/xlink" x="0px"
	 y="0px" viewBox="0 0 48 48" style="enable-background:new 0 0 48 48;" xml:space="preserve">
<style type="text/css">
	.st0{fill:#555555;}
	.st1{fill:#09AF00;}
</style>
<circle class="st0" cx="24" cy="24" r="24"/>
<path class="st1" d="M34.5,36c-2.7,0-5.4-0.7-8.1-2c-2.7-1.3-5.1-3-7.2-5.2s-3.9-4.5-5.2-7.2s-2-5.4-2-8.1c0-0.2,0-0.5,0-0.8
	c0-0.3,0.1-0.5,0.1-0.7h6.4c0.4,0,0.7,0.3,0.8,0.7l1.1,5.2c0.1,0.3,0,0.6-0.2,0.8l-3.1,3.1c-0.3,0.3-0.3,0.7-0.1,1
	c1.1,1.8,2.4,3.4,3.8,4.8c1.4,1.4,2.9,2.6,4.7,3.6c0.3,0.2,0.8,0.1,1-0.1l3.1-3.2c0.2-0.2,0.5-0.3,0.8-0.2l4.9,1.1
	c0.4,0.1,0.7,0.4,0.7,0.8v6.4c-0.2,0-0.5,0-0.7,0.1C35,35.9,34.7,36,34.5,36z"/>
</svg>
