<?xml version="1.0" encoding="utf-8"?>
<!-- Generator: Adobe Illustrator 25.0.1, SVG Export Plug-In . SVG Version: 6.00 Build 0)  -->
<svg version="1.1" id="레이어_1" xmlns="http://www.w3.org/2000/svg" xmlns:xlink="http://www.w3.org/1999/xlink" x="0px"
	 y="0px" viewBox="0 0 48 48" style="enable-background:new 0 0 48 48;" xml:space="preserve">
<style type="text/css">
	.st0{fill:#FFFFFF;}
</style>
<path class="st0" d="M9,44c-0.8,0-1.5-0.3-2.1-0.9C6.3,42.4,6,41.8,6,41V10.8h3V41h23.7v3H9z M15,38c-0.8,0-1.5-0.3-2.1-0.9
	C12.3,36.4,12,35.8,12,35V7c0-0.8,0.3-1.5,0.9-2.1C13.5,4.3,14.2,4,15,4h22c0.8,0,1.5,0.3,2.1,0.9C39.7,5.5,40,6.2,40,7v28
	c0,0.8-0.3,1.5-0.9,2.1S37.8,38,37,38H15z M15,35h22V7H15V35z M15,35V7V35z"/>
</svg>
