<?xml version="1.0" encoding="utf-8"?>
<!-- Generator: Adobe Illustrator 25.0.1, SVG Export Plug-In . SVG Version: 6.00 Build 0)  -->
<svg version="1.1" id="레이어_1" xmlns="http://www.w3.org/2000/svg" xmlns:xlink="http://www.w3.org/1999/xlink" x="0px"
	 y="0px" viewBox="0 0 282.6 24.2" style="enable-background:new 0 0 282.6 24.2;" xml:space="preserve">
<style type="text/css">
	.st0{fill:none;}
	.st1{fill:#AD7200;}
</style>
<g>
	<path class="st0" d="M73.4,6.5c-10.3,3.6-20.1,8.8-30.5,12.2c-3.3,1.1-6.8,1.9-10.4,2.4c7.7,1.6,16,1.4,23,0.9
		c6.9-0.4,13.2-2.7,19.5-5.4c7.3-3.2,14.4-6.8,21.8-9.9c2.9-1.2,5.9-2.4,8.9-3.5c-1.1-0.4-2.1-0.6-3.2-0.9
		C92.9,0.3,82.4,3.3,73.4,6.5z"/>
	<path class="st0" d="M4,14.7c0,0,0-0.1,0-0.1c0,0,0,0,0,0C4,14.6,4,14.7,4,14.7z"/>
	<path class="st0" d="M123.6,5.1c-1.3,1.1-2,2.6-2.3,4.3c3.1-3.7,9-4.9,14-3.8c-2-1.1-4-1.9-6.3-2.5C127.1,3.4,125.3,3.6,123.6,5.1z
		"/>
	<path class="st0" d="M147.2,5.6c5-1.1,10.9,0.1,14,3.8c-0.3-1.6-1-3.1-2.3-4.3c-1.7-1.5-3.5-1.7-5.5-2
		C151.3,3.7,149.2,4.5,147.2,5.6z"/>
	<path class="st0" d="M278.5,14.6c0,0,0,0.1,0,0.1C278.5,14.7,278.5,14.6,278.5,14.6C278.5,14.6,278.5,14.6,278.5,14.6z"/>
	<path class="st0" d="M209.2,6.5c-9-3.2-19.4-6.2-29-4.2c-1.1,0.2-2.1,0.5-3.2,0.9c3,1,6,2.2,8.9,3.5c7.3,3.1,14.4,6.8,21.8,9.9
		c6.3,2.7,12.6,5,19.5,5.4c6.9,0.4,15.3,0.6,23-0.9c-3.5-0.5-7-1.3-10.4-2.4C229.3,15.3,219.5,10.1,209.2,6.5z"/>
	<path class="st1" d="M281,11.5c-1-0.4-2.5-0.4-3.4,0.2c-0.2,0.2-0.4,0.4-0.5,0.6c-0.3,0.1-0.6,0.3-0.7,0.7c-0.2,0.9-0.4,2-0.2,3
		c-2,0.9-4.1,1.8-6.2,2.5c-3.5,0.9-7.3,1.1-10.9,1.1c4.8-2.3,9-5.7,11.3-10.8c0.2-0.5-0.5-0.9-0.7-0.4c-3.1,5.5-8,8.9-13.7,10.9
		c-0.1,0-0.2,0-0.3-0.1c-3.9-1.2-7.8-6-4.5-9.8c1.1-1.2,2.8-2.1,4.4-1.6c0.9,0.3,1.4,1,1.6,1.8c0.2,0.6,0.2,1,0,1.3
		c-0.1-0.3-0.3-0.5-0.6-0.6c-0.7-0.2-1.4-0.4-2.2-0.4c-0.5,0-1,0.5-1,1c0,0.7,0,1.3,0,2c0,0.6,0.5,0.9,1,1c2.3,0.2,5.3-1,4.8-3.8
		c-0.3-2-2-3.7-4-3.7c-4.5-0.1-8.1,4.6-6.5,8.9c0.6,1.6,1.5,2.8,2.7,3.7c-7-1-13.6-3.3-20.2-6c-10.7-4.4-21.3-9.5-32.7-11.8
		c-7.9-1.6-16.4-2.1-23.9,1.2c-4.9-1.5-9.9-2.4-15-2.3c-6.4,0.2-11.9,2.8-16.3,6.9c-0.7,0.4-1.4,0.9-2,1.4c-0.6-0.5-1.3-1-2-1.4
		c-4.4-4.1-9.9-6.7-16.3-6.9C117.9,0,112.9,1,108,2.5c-7.5-3.3-16-2.8-23.9-1.2c-11.4,2.3-22,7.4-32.7,11.8c-6.6,2.7-13.2,5-20.2,6
		c1.2-0.9,2.1-2.2,2.7-3.7c1.6-4.3-2-9-6.5-8.9c-2.1,0-3.7,1.7-4,3.7c-0.5,2.8,2.5,4.1,4.8,3.8c0.5-0.1,1-0.4,1-1c0-0.7,0-1.3,0-2
		c0-0.5-0.4-1-1-1c-0.8,0.1-1.5,0.2-2.2,0.4c-0.3,0.1-0.5,0.3-0.6,0.6c-0.2-0.3-0.2-0.7,0-1.3C25.7,9,26.1,8.3,27,8
		c1.6-0.5,3.3,0.3,4.4,1.6c3.3,3.8-0.7,8.6-4.5,9.8c-0.1,0-0.2,0-0.3,0.1C20.9,17.3,16,14,12.9,8.5C12.7,8,12,8.4,12.2,8.9
		c2.3,5.1,6.5,8.5,11.3,10.8c-3.6,0-7.4-0.2-10.9-1.1c-2.2-0.7-4.3-1.6-6.2-2.5c0.2-0.9,0-2.1-0.2-3c-0.1-0.4-0.4-0.6-0.7-0.7
		c-0.1-0.2-0.3-0.5-0.5-0.6c-0.9-0.6-2.4-0.6-3.4-0.2c-1.7,0.7-2,2.6-1,4c0.8,1.1,2.3,2.6,3.8,2.4c0.6-0.1,1.1-0.3,1.4-0.7
		c2.5,1.5,5.2,2.6,8.1,3.3c1.7,0.5,3.4,0.8,5.2,1.1c1.7,0.2,3.7,0.3,5.6,0c1.2,0,2.4-0.1,3.6-0.1c1.9,0.6,3.8,1.1,5.6,1.4
		c4.8,0.9,9.7,1.3,14.6,1.3c4.1,0,8.2,0,12.2-0.6c6.9-1.1,13.4-3.9,19.7-6.8c7.4-3.4,14.6-7.1,22.2-9.9c2.1-0.8,4.2-1.5,6.3-2.2
		c1.3,0.7,2.6,1.7,3.5,2.9c1.3,1.7,2.3,4.3,1.2,6.4c-1.1,2.1-3.4,3.8-5.6,4.5c-2.5,0.8-6.1,1.2-7-2.1c-0.5-1.6-0.1-4.3,2.2-3.3
		c1.2,0.5,1.9-1.2,0.7-1.7c-2.6-0.9-4.5,1.1-4.6,3.6c-0.1,3,2.1,5.5,5,5.8c4.5,0.6,11.1-2.8,11.6-7.8c0.3-3.7-2-6.9-5-8.9
		c4.4-1.2,8.9-2,13.5-1.7c0.4,0,0.9,0.1,1.3,0.1c-1.1,0.4-2,1.1-2.7,1.8c-1.8,1.9-2.5,4.2-2.6,6.8c0,0.5,0.7,0.7,0.9,0.2
		c2.2-3.5,7.4-4.5,11.2-4.3c2.9,0.1,5.7,0.8,8,2.4c-0.7,0.8-1.3,1.8-1.7,2.9c-0.1,0.1-0.1,0.2-0.2,0.2c-0.2,0.3,0.3,0.5,0.5,0.3
		c0.7-0.9,1.5-1.8,2.3-2.6c0.8,0.8,1.5,1.7,2.3,2.6c0.2,0.3,0.7,0,0.5-0.3c-0.1-0.1-0.1-0.2-0.2-0.2c-0.4-1.1-1-2-1.7-2.9
		c2.3-1.6,5.2-2.3,8-2.4c3.8-0.2,9,0.8,11.2,4.3c0.3,0.4,0.9,0.3,0.9-0.2c-0.1-2.6-0.7-4.9-2.6-6.8c-0.7-0.7-1.7-1.3-2.7-1.8
		c0.4,0,0.9-0.1,1.3-0.1c4.5-0.3,9.1,0.5,13.4,1.7c-3,2.1-5.3,5.2-5,8.9c0.4,5,7,8.4,11.6,7.8c3-0.4,5.1-2.9,5-5.8
		c-0.1-2.5-2-4.5-4.6-3.6c-1.2,0.4-0.5,2.2,0.7,1.7c2.3-1,2.7,1.8,2.2,3.3c-0.9,3.3-4.5,2.9-7,2.1c-2.3-0.7-4.5-2.4-5.6-4.5
		c-1.1-2.1-0.2-4.7,1.2-6.4c0.9-1.2,2.2-2.2,3.5-2.9c2.1,0.7,4.3,1.4,6.3,2.2c7.6,2.9,14.8,6.6,22.2,9.9c6.3,2.9,12.8,5.8,19.7,6.8
		c4,0.6,8.2,0.6,12.2,0.6c4.9,0,9.8-0.3,14.6-1.3c1.9-0.4,3.8-0.8,5.6-1.4c1.2,0.1,2.4,0.1,3.6,0.1c1.9,0.2,3.9,0.2,5.6,0
		c1.7-0.2,3.5-0.6,5.2-1.1c2.9-0.7,5.6-1.7,8.1-3.3c0.3,0.3,0.8,0.6,1.4,0.7c1.5,0.2,3-1.2,3.8-2.4C283,14.1,282.8,12.3,281,11.5z
		 M4,14.7c0,0,0-0.1,0-0.1c0,0,0,0,0,0C4.1,14.6,4.1,14.7,4,14.7z M96.8,6.7c-7.3,3.1-14.4,6.8-21.8,9.9c-6.3,2.7-12.6,5-19.5,5.4
		c-6.9,0.4-15.3,0.6-23-0.9c3.5-0.5,7-1.3,10.4-2.4c10.4-3.4,20.2-8.5,30.5-12.2c9-3.2,19.4-6.2,29-4.2c1.1,0.2,2.1,0.5,3.2,0.9
		C102.6,4.2,99.7,5.4,96.8,6.7z M121.4,9.3c0.3-1.6,1-3.1,2.3-4.3c1.7-1.5,3.5-1.7,5.5-2c2.2,0.6,4.3,1.4,6.3,2.5
		C130.3,4.4,124.5,5.7,121.4,9.3z M159,5.1c1.3,1.1,2,2.6,2.3,4.3c-3.1-3.7-9-4.9-14-3.8c2-1.1,4-1.9,6.3-2.5
		C155.5,3.4,157.2,3.6,159,5.1z M227.1,22c-6.9-0.4-13.2-2.7-19.5-5.4c-7.3-3.2-14.4-6.8-21.8-9.9c-2.9-1.2-5.9-2.4-8.9-3.5
		c1.1-0.4,2.1-0.6,3.2-0.9c9.6-2.1,20,1,29,4.2c10.3,3.6,20.1,8.8,30.5,12.2c3.3,1.1,6.8,1.9,10.4,2.4C242.4,22.6,234,22.4,227.1,22
		z M278.5,14.6C278.5,14.6,278.5,14.6,278.5,14.6c0,0,0,0.1,0,0.1C278.5,14.7,278.5,14.6,278.5,14.6z"/>
</g>
</svg>
