<?xml version="1.0" encoding="utf-8"?>
<!-- Generator: Adobe Illustrator 25.0.1, SVG Export Plug-In . SVG Version: 6.00 Build 0)  -->
<svg version="1.1" id="레이어_1" xmlns="http://www.w3.org/2000/svg" xmlns:xlink="http://www.w3.org/1999/xlink" x="0px"
	 y="0px" viewBox="0 0 100 100" style="enable-background:new 0 0 100 100;" xml:space="preserve">
<style type="text/css">
	.st0{fill:#FFFFFF;}
	.st1{fill:#FFAECF;}
</style>
<g>
	<g>
		<g>
			<g>
				<g>
					<rect x="-86.2" y="-83.4" class="st0" width="1" height="33.2"/>
				</g>
			</g>
			<g>
				<g>
					<rect x="-86.2" y="-16.6" class="st0" width="1" height="33.2"/>
				</g>
			</g>
		</g>
		<g>
			<g>
				<g>
					
						<rect x="-115.1" y="-66.7" transform="matrix(0.5 -0.866 0.866 0.5 -13.8988 -124.3285)" class="st0" width="1" height="33.2"/>
				</g>
			</g>
			<g>
				<g>
					<rect x="-57.3" y="-33.3" transform="matrix(0.5 -0.866 0.866 0.5 -13.9419 -57.5346)" class="st0" width="1" height="33.2"/>
				</g>
			</g>
		</g>
		<g>
			<g>
				<g>
					
						<rect x="-131.2" y="-17.2" transform="matrix(0.8661 -0.4999 0.4999 0.8661 -6.9899 -59.531)" class="st0" width="33.2" height="1"/>
				</g>
			</g>
			<g>
				<g>
					
						<rect x="-73.4" y="-50.6" transform="matrix(0.8661 -0.4999 0.4999 0.8661 17.4366 -35.1045)" class="st0" width="33.2" height="1"/>
				</g>
			</g>
		</g>
	</g>
	<g>
		<g>
			<g>
				<g>
					<rect x="-48.9" y="-33.9" class="st0" width="13.2" height="1"/>
				</g>
			</g>
			<g>
				<g>
					<rect x="-135.7" y="-33.9" class="st0" width="13.2" height="1"/>
				</g>
			</g>
		</g>
		<g>
			<g>
				<g>
					
						<rect x="-70.6" y="-71.5" transform="matrix(0.5003 -0.8658 0.8658 0.5003 29.4888 -90.8992)" class="st0" width="13.2" height="1"/>
				</g>
			</g>
			<g>
				<g>
					
						<rect x="-114" y="3.7" transform="matrix(0.5004 -0.8658 0.8658 0.5004 -57.2848 -90.9052)" class="st0" width="13.2" height="1"/>
				</g>
			</g>
		</g>
		<g>
			<g>
				<g>
					<rect x="-107.9" y="-77.6" transform="matrix(0.866 -0.5 0.5 0.866 21.1124 -63.2174)" class="st0" width="1" height="13.2"/>
				</g>
			</g>
			<g>
				<g>
					<rect x="-64.5" y="-2.4" transform="matrix(0.866 -0.5 0.5 0.866 -10.6722 -31.4382)" class="st0" width="1" height="13.2"/>
				</g>
			</g>
		</g>
	</g>
	<g>
		<g>
			<path class="st0" d="M-85.7-27.6c-3.2,0-5.8-2.6-5.8-5.8s2.6-5.8,5.8-5.8c3.2,0,5.8,2.6,5.8,5.8C-79.9-30.2-82.5-27.6-85.7-27.6z
				 M-85.7-38.2c-2.6,0-4.8,2.1-4.8,4.8c0,2.6,2.1,4.8,4.8,4.8c2.6,0,4.8-2.1,4.8-4.8C-80.9-36-83.1-38.2-85.7-38.2z"/>
		</g>
	</g>
</g>
<g>
	<g>
		<rect x="49.5" y="30.6" class="st0" width="1.1" height="14"/>
	</g>
</g>
<g>
	<g>
		<rect x="49.5" y="55.4" class="st0" width="1.1" height="14"/>
	</g>
</g>
<g>
	<g>
		
			<rect x="41.4" y="32.7" transform="matrix(0.8661 -0.4999 0.4999 0.8661 -12.3513 25.7707)" class="st1" width="1.1" height="6.5"/>
	</g>
</g>
<g>
	<g>
		<rect x="57.6" y="60.7" transform="matrix(0.866 -0.5 0.5 0.866 -24.177 37.6205)" class="st1" width="1.1" height="6.5"/>
	</g>
</g>
<g>
	<g>
		
			<rect x="35.4" y="38.6" transform="matrix(0.4999 -0.8661 0.8661 0.4999 -18.2364 52.0671)" class="st1" width="1.1" height="6.5"/>
	</g>
</g>
<g>
	<g>
		<rect x="63.4" y="54.8" transform="matrix(0.5 -0.866 0.866 0.5 -18.2638 84.4377)" class="st1" width="1.1" height="6.5"/>
	</g>
</g>
<g>
	<g>
		<rect x="30.6" y="49.5" class="st0" width="14" height="1.1"/>
	</g>
</g>
<g>
	<g>
		<rect x="55.4" y="49.5" class="st0" width="14" height="1.1"/>
	</g>
</g>
<g>
	<g>
		
			<rect x="32.7" y="57.6" transform="matrix(0.8661 -0.4999 0.4999 0.8661 -24.2561 25.7779)" class="st1" width="6.5" height="1.1"/>
	</g>
</g>
<g>
	<g>
		
			<rect x="60.7" y="41.4" transform="matrix(0.8661 -0.4999 0.4999 0.8661 -12.4166 37.6036)" class="st1" width="6.5" height="1.1"/>
	</g>
</g>
<g>
	<g>
		
			<rect x="38.7" y="63.5" transform="matrix(0.5003 -0.8658 0.8658 0.5003 -34.5427 68.3085)" class="st1" width="6.5" height="1.1"/>
	</g>
</g>
<g>
	<g>
		
			<rect x="54.9" y="35.5" transform="matrix(0.5003 -0.8658 0.8658 0.5003 -2.1764 68.3363)" class="st1" width="6.5" height="1.1"/>
	</g>
</g>
<g>
	<g>
		<g>
			<g>
				<rect x="-3.7" y="110.6" class="st0" width="0.9" height="2.9"/>
			</g>
		</g>
		<g>
			<g>
				<rect x="-3.7" y="124.2" class="st0" width="0.9" height="2.9"/>
			</g>
		</g>
	</g>
	<g>
		<g>
			<g>
				
					<rect x="-7" y="111.5" transform="matrix(0.866 -0.5001 0.5001 0.866 -57.3593 11.8524)" class="st0" width="0.9" height="2.9"/>
			</g>
		</g>
		<g>
			<g>
				
					<rect x="-0.3" y="123.2" transform="matrix(0.866 -0.5001 0.5001 0.866 -62.3306 16.7755)" class="st0" width="0.9" height="2.9"/>
			</g>
		</g>
	</g>
	<g>
		<g>
			<g>
				<rect x="-9.5" y="114" transform="matrix(0.5 -0.866 0.866 0.5 -104.492 49.8735)" class="st0" width="0.9" height="2.9"/>
			</g>
		</g>
		<g>
			<g>
				<rect x="2.2" y="120.8" transform="matrix(0.5 -0.866 0.866 0.5 -104.5121 63.4395)" class="st0" width="0.9" height="2.9"/>
			</g>
		</g>
	</g>
	<g>
		<g>
			<g>
				<rect x="-11.4" y="118.4" class="st0" width="2.9" height="0.9"/>
			</g>
		</g>
		<g>
			<g>
				<rect x="2.1" y="118.4" class="st0" width="2.9" height="0.9"/>
			</g>
		</g>
	</g>
	<g>
		<g>
			<g>
				
					<rect x="-10.5" y="121.8" transform="matrix(0.8661 -0.4999 0.4999 0.8661 -62.3178 11.8524)" class="st0" width="2.9" height="0.9"/>
			</g>
		</g>
		<g>
			<g>
				
					<rect x="1.2" y="115" transform="matrix(0.8661 -0.4999 0.4999 0.8661 -57.3607 16.7857)" class="st0" width="2.9" height="0.9"/>
			</g>
		</g>
	</g>
	<g>
		<g>
			<g>
				
					<rect x="-8.1" y="124.2" transform="matrix(0.5003 -0.8658 0.8658 0.5003 -111.2136 56.556)" class="st0" width="2.9" height="0.9"/>
			</g>
		</g>
		<g>
			<g>
				
					<rect x="-1.3" y="112.5" transform="matrix(0.5003 -0.8658 0.8658 0.5003 -97.7513 56.5785)" class="st0" width="2.9" height="0.9"/>
			</g>
		</g>
	</g>
</g>
<g>
	<g>
		<g>
			<g>
				<rect x="45.2" y="130.2" class="st0" width="13.1" height="1.1"/>
			</g>
		</g>
		<g>
			<g>
				<rect x="16.5" y="130.2" class="st0" width="13.1" height="1.1"/>
			</g>
		</g>
	</g>
	<g>
		<g>
			<g>
				<rect x="38" y="117.7" transform="matrix(0.5 -0.866 0.866 0.5 -80.1761 97.7217)" class="st0" width="13.1" height="1.1"/>
			</g>
		</g>
		<g>
			<g>
				<rect x="23.6" y="142.6" transform="matrix(0.5 -0.866 0.866 0.5 -108.8622 97.6902)" class="st0" width="13.1" height="1.1"/>
			</g>
		</g>
	</g>
	<g>
		<g>
			<g>
				
					<rect x="29.6" y="111.7" transform="matrix(0.8661 -0.4999 0.4999 0.8661 -55.0898 30.9071)" class="st0" width="1.1" height="13.1"/>
			</g>
		</g>
		<g>
			<g>
				
					<rect x="44" y="136.7" transform="matrix(0.8661 -0.4999 0.4999 0.8661 -65.6479 41.469)" class="st0" width="1.1" height="13.1"/>
			</g>
		</g>
	</g>
	<g>
		<g>
			<path class="st0" d="M33.6,130.7c0-2.1,1.7-3.8,3.8-3.8s3.8,1.7,3.8,3.8s-1.7,3.8-3.8,3.8S33.6,132.8,33.6,130.7z M40,130.7
				c0-1.4-1.2-2.6-2.6-2.6c-1.4,0-2.6,1.2-2.6,2.6c0,1.4,1.2,2.6,2.6,2.6C38.8,133.4,40,132.2,40,130.7z"/>
		</g>
	</g>
</g>
<g>
	<g>
		<g>
			<rect x="22.5" y="-151.8" class="st0" width="1" height="39.3"/>
		</g>
	</g>
	<g>
		<g>
			<rect x="22.5" y="-91.1" class="st0" width="1" height="39.3"/>
		</g>
	</g>
	<g>
		<g>
			<rect x="33.7" y="-102.4" class="st0" width="39.3" height="1"/>
		</g>
	</g>
	<g>
		<g>
			<rect x="-27" y="-102.4" class="st0" width="39.3" height="1"/>
		</g>
	</g>
	<g>
		<g>
			<g>
				
					<rect x="56.9" y="-124.8" transform="matrix(0.8661 -0.4999 0.4999 0.8661 70.4407 14.325)" class="st0" width="10.1" height="1"/>
			</g>
		</g>
		<g>
			<g>
				
					<rect x="-21" y="-79.9" transform="matrix(0.8661 -0.4999 0.4999 0.8661 37.5476 -18.6134)" class="st0" width="10.1" height="1"/>
			</g>
		</g>
		<g>
			<g>
				<rect x="45" y="-67.9" transform="matrix(0.866 -0.5001 0.5001 0.866 37.5422 14.3377)" class="st0" width="1" height="10.1"/>
			</g>
		</g>
		<g>
			<g>
				<rect x="0" y="-145.8" transform="matrix(0.866 -0.5 0.5 0.866 70.442 -18.5979)" class="st0" width="1" height="10.1"/>
			</g>
		</g>
	</g>
	<g>
		<g>
			<g>
				
					<rect x="40.4" y="-141.3" transform="matrix(0.5003 -0.8658 0.8658 0.5003 144.575 -30.9913)" class="st0" width="10.1" height="1"/>
			</g>
		</g>
		<g>
			<g>
				
					<rect x="-4.5" y="-63.4" transform="matrix(0.5003 -0.8658 0.8658 0.5003 54.7529 -30.9748)" class="st0" width="10.1" height="1"/>
			</g>
		</g>
		<g>
			<g>
				<rect x="61.4" y="-84.4" transform="matrix(0.5 -0.866 0.866 0.5 99.6582 13.9634)" class="st0" width="1" height="10.1"/>
			</g>
		</g>
		<g>
			<g>
				<rect x="-16.4" y="-129.4" transform="matrix(0.5 -0.866 0.866 0.5 99.7239 -75.9888)" class="st0" width="1" height="10.1"/>
			</g>
		</g>
	</g>
	<g>
		<g>
			
				<rect x="23.7" y="-110.5" transform="matrix(0.7071 -0.7071 0.7071 0.7071 86.8644 -10.2413)" class="st0" width="14.8" height="1"/>
		</g>
	</g>
	<g>
		<g>
			
				<rect x="7.5" y="-94.2" transform="matrix(0.7071 -0.7071 0.7071 0.7071 70.6349 -16.9069)" class="st0" width="14.8" height="1"/>
		</g>
	</g>
	<g>
		<g>
			
				<rect x="30.6" y="-101.1" transform="matrix(0.7071 -0.7071 0.7071 0.7071 75.3655 -5.4402)" class="st0" width="1" height="14.8"/>
		</g>
	</g>
	<g>
		<g>
			
				<rect x="14.4" y="-117.4" transform="matrix(0.7071 -0.7071 0.7071 0.7071 82.1305 -21.7105)" class="st0" width="1" height="14.8"/>
		</g>
	</g>
</g>
</svg>
