<?xml version="1.0" encoding="utf-8"?>
<!-- Generator: Adobe Illustrator 25.0.1, SVG Export Plug-In . SVG Version: 6.00 Build 0)  -->
<svg version="1.1" id="레이어_1" xmlns="http://www.w3.org/2000/svg" xmlns:xlink="http://www.w3.org/1999/xlink" x="0px"
	 y="0px" viewBox="0 0 100 100" style="enable-background:new 0 0 100 100;" xml:space="preserve">
<style type="text/css">
	.st0{fill:#FFFFFF;}
	.st1{fill:#FFF4C7;}
</style>
<g>
	<g>
		<g>
			<g>
				<g>
					<rect x="-71.8" class="st0" width="1" height="33.2"/>
				</g>
			</g>
			<g>
				<g>
					<rect x="-71.8" y="66.8" class="st0" width="1" height="33.2"/>
				</g>
			</g>
		</g>
		<g>
			<g>
				<g>
					<rect x="-100.8" y="16.7" transform="matrix(0.5 -0.866 0.866 0.5 -79.0249 -70.1867)" class="st0" width="1" height="33.2"/>
				</g>
			</g>
			<g>
				<g>
					<rect x="-42.9" y="50.1" transform="matrix(0.5 -0.866 0.866 0.5 -78.9678 -3.3928)" class="st0" width="1" height="33.2"/>
				</g>
			</g>
		</g>
		<g>
			<g>
				<g>
					
						<rect x="-116.9" y="66.2" transform="matrix(0.8661 -0.4999 0.4999 0.8661 -46.7868 -41.207)" class="st0" width="33.2" height="1"/>
				</g>
			</g>
			<g>
				<g>
					
						<rect x="-59" y="32.8" transform="matrix(0.8661 -0.4999 0.4999 0.8661 -22.3237 -16.7439)" class="st0" width="33.2" height="1"/>
				</g>
			</g>
		</g>
	</g>
	<g>
		<g>
			<g>
				<g>
					<rect x="-34.5" y="49.5" class="st0" width="13.2" height="1"/>
				</g>
			</g>
			<g>
				<g>
					<rect x="-121.3" y="49.5" class="st0" width="13.2" height="1"/>
				</g>
			</g>
		</g>
		<g>
			<g>
				<g>
					
						<rect x="-56.2" y="11.9" transform="matrix(0.5003 -0.8658 0.8658 0.5003 -35.5234 -36.7886)" class="st0" width="13.2" height="1"/>
				</g>
			</g>
			<g>
				<g>
					
						<rect x="-99.6" y="87.1" transform="matrix(0.5004 -0.8658 0.8658 0.5004 -122.2991 -36.7963)" class="st0" width="13.2" height="1"/>
				</g>
			</g>
		</g>
		<g>
			<g>
				<g>
					<rect x="-93.5" y="5.8" transform="matrix(0.866 -0.5 0.5 0.866 -18.6541 -44.8494)" class="st0" width="1" height="13.2"/>
				</g>
			</g>
			<g>
				<g>
					<rect x="-50.1" y="81" transform="matrix(0.866 -0.5 0.5 0.866 -50.4393 -13.0707)" class="st0" width="1" height="13.2"/>
				</g>
			</g>
		</g>
	</g>
	<g>
		<g>
			<path class="st0" d="M-71.3,55.8c-3.2,0-5.8-2.6-5.8-5.8s2.6-5.8,5.8-5.8c3.2,0,5.8,2.6,5.8,5.8S-68.1,55.8-71.3,55.8z
				 M-71.3,45.2c-2.6,0-4.8,2.1-4.8,4.8c0,2.6,2.1,4.8,4.8,4.8c2.6,0,4.8-2.1,4.8-4.8C-66.5,47.4-68.7,45.2-71.3,45.2z"/>
		</g>
	</g>
</g>
<g>
	<g>
		<g>
			<rect x="-50.3" y="101.3" class="st0" width="1.1" height="14"/>
		</g>
	</g>
	<g>
		<g>
			<rect x="-50.3" y="126.1" class="st0" width="1.1" height="14"/>
		</g>
	</g>
	<g>
		<g>
			
				<rect x="-58.3" y="103.4" transform="matrix(0.8661 -0.4999 0.4999 0.8661 -61.0426 -14.6125)" class="st0" width="1.1" height="6.5"/>
		</g>
	</g>
	<g>
		<g>
			<rect x="-42.2" y="131.5" transform="matrix(0.866 -0.5 0.5 0.866 -72.9553 -2.7635)" class="st0" width="1.1" height="6.5"/>
		</g>
	</g>
	<g>
		<g>
			
				<rect x="-64.3" y="109.4" transform="matrix(0.4999 -0.8661 0.8661 0.4999 -129.4333 1.1531)" class="st0" width="1.1" height="6.5"/>
		</g>
	</g>
	<g>
		<g>
			<rect x="-36.3" y="125.5" transform="matrix(0.5 -0.866 0.866 0.5 -129.3449 33.4129)" class="st0" width="1.1" height="6.5"/>
		</g>
	</g>
	<g>
		<g>
			<rect x="-69.2" y="120.2" class="st0" width="14" height="1.1"/>
		</g>
	</g>
	<g>
		<g>
			<rect x="-44.3" y="120.2" class="st0" width="14" height="1.1"/>
		</g>
	</g>
	<g>
		<g>
			
				<rect x="-67" y="128.3" transform="matrix(0.8661 -0.4999 0.4999 0.8661 -72.9479 -14.6024)" class="st0" width="6.5" height="1.1"/>
		</g>
	</g>
	<g>
		<g>
			
				<rect x="-39" y="112.1" transform="matrix(0.8661 -0.4999 0.4999 0.8661 -61.1082 -2.778)" class="st0" width="6.5" height="1.1"/>
		</g>
	</g>
	<g>
		<g>
			
				<rect x="-61.1" y="134.2" transform="matrix(0.5003 -0.8658 0.8658 0.5003 -145.5765 17.28)" class="st0" width="6.5" height="1.1"/>
		</g>
	</g>
	<g>
		<g>
			
				<rect x="-44.9" y="106.2" transform="matrix(0.5003 -0.8658 0.8658 0.5003 -113.21 17.3078)" class="st0" width="6.5" height="1.1"/>
		</g>
	</g>
</g>
<g>
	<g>
		<g>
			<g>
				<rect x="-3.7" y="110.6" class="st0" width="0.9" height="2.9"/>
			</g>
		</g>
		<g>
			<g>
				<rect x="-3.7" y="124.2" class="st0" width="0.9" height="2.9"/>
			</g>
		</g>
	</g>
	<g>
		<g>
			<g>
				
					<rect x="-7" y="111.5" transform="matrix(0.866 -0.5001 0.5001 0.866 -57.3593 11.8524)" class="st0" width="0.9" height="2.9"/>
			</g>
		</g>
		<g>
			<g>
				
					<rect x="-0.3" y="123.2" transform="matrix(0.866 -0.5001 0.5001 0.866 -62.3306 16.7755)" class="st0" width="0.9" height="2.9"/>
			</g>
		</g>
	</g>
	<g>
		<g>
			<g>
				<rect x="-9.5" y="114" transform="matrix(0.5 -0.866 0.866 0.5 -104.492 49.8735)" class="st0" width="0.9" height="2.9"/>
			</g>
		</g>
		<g>
			<g>
				<rect x="2.2" y="120.8" transform="matrix(0.5 -0.866 0.866 0.5 -104.5121 63.4395)" class="st0" width="0.9" height="2.9"/>
			</g>
		</g>
	</g>
	<g>
		<g>
			<g>
				<rect x="-11.4" y="118.4" class="st0" width="2.9" height="0.9"/>
			</g>
		</g>
		<g>
			<g>
				<rect x="2.1" y="118.4" class="st0" width="2.9" height="0.9"/>
			</g>
		</g>
	</g>
	<g>
		<g>
			<g>
				
					<rect x="-10.5" y="121.8" transform="matrix(0.8661 -0.4999 0.4999 0.8661 -62.3178 11.8524)" class="st0" width="2.9" height="0.9"/>
			</g>
		</g>
		<g>
			<g>
				
					<rect x="1.2" y="115" transform="matrix(0.8661 -0.4999 0.4999 0.8661 -57.3607 16.7857)" class="st0" width="2.9" height="0.9"/>
			</g>
		</g>
	</g>
	<g>
		<g>
			<g>
				
					<rect x="-8.1" y="124.2" transform="matrix(0.5003 -0.8658 0.8658 0.5003 -111.2136 56.556)" class="st0" width="2.9" height="0.9"/>
			</g>
		</g>
		<g>
			<g>
				
					<rect x="-1.3" y="112.5" transform="matrix(0.5003 -0.8658 0.8658 0.5003 -97.7513 56.5785)" class="st0" width="2.9" height="0.9"/>
			</g>
		</g>
	</g>
</g>
<g>
	<g>
		<g>
			<g>
				<rect x="45.2" y="130.2" class="st0" width="13.1" height="1.1"/>
			</g>
		</g>
		<g>
			<g>
				<rect x="16.5" y="130.2" class="st0" width="13.1" height="1.1"/>
			</g>
		</g>
	</g>
	<g>
		<g>
			<g>
				<rect x="38" y="117.7" transform="matrix(0.5 -0.866 0.866 0.5 -80.1761 97.7217)" class="st0" width="13.1" height="1.1"/>
			</g>
		</g>
		<g>
			<g>
				<rect x="23.6" y="142.6" transform="matrix(0.5 -0.866 0.866 0.5 -108.8622 97.6902)" class="st0" width="13.1" height="1.1"/>
			</g>
		</g>
	</g>
	<g>
		<g>
			<g>
				
					<rect x="29.6" y="111.7" transform="matrix(0.8661 -0.4999 0.4999 0.8661 -55.0898 30.9071)" class="st0" width="1.1" height="13.1"/>
			</g>
		</g>
		<g>
			<g>
				
					<rect x="44" y="136.7" transform="matrix(0.8661 -0.4999 0.4999 0.8661 -65.6479 41.469)" class="st0" width="1.1" height="13.1"/>
			</g>
		</g>
	</g>
	<g>
		<g>
			<path class="st0" d="M33.6,130.7c0-2.1,1.7-3.8,3.8-3.8s3.8,1.7,3.8,3.8s-1.7,3.8-3.8,3.8S33.6,132.8,33.6,130.7z M40,130.7
				c0-1.4-1.2-2.6-2.6-2.6c-1.4,0-2.6,1.2-2.6,2.6c0,1.4,1.2,2.6,2.6,2.6C38.8,133.4,40,132.2,40,130.7z"/>
		</g>
	</g>
</g>
<g>
	<g>
		<rect x="49.5" class="st1" width="1" height="39.3"/>
	</g>
</g>
<g>
	<g>
		<rect x="49.5" y="60.7" class="st1" width="1" height="39.3"/>
	</g>
</g>
<g>
	<g>
		<rect x="60.7" y="49.5" class="st1" width="39.3" height="1"/>
	</g>
</g>
<g>
	<g>
		<rect y="49.5" class="st1" width="39.3" height="1"/>
	</g>
</g>
<g>
	<g>
		<g>
			<rect x="83.9" y="27" transform="matrix(0.8661 -0.4999 0.4999 0.8661 -1.8353 48.1417)" class="st0" width="10.1" height="1"/>
		</g>
	</g>
	<g>
		<g>
			<rect x="6" y="72" transform="matrix(0.8661 -0.4999 0.4999 0.8661 -34.765 15.2399)" class="st0" width="10.1" height="1"/>
		</g>
	</g>
	<g>
		<g>
			<rect x="72" y="83.9" transform="matrix(0.866 -0.5001 0.5001 0.866 -34.7559 48.1808)" class="st0" width="1" height="10.1"/>
		</g>
	</g>
	<g>
		<g>
			<rect x="27" y="6" transform="matrix(0.866 -0.5 0.5 0.866 -1.849 15.2296)" class="st0" width="1" height="10.1"/>
		</g>
	</g>
</g>
<g>
	<g>
		<g>
			
				<rect x="67.4" y="10.6" transform="matrix(0.5003 -0.8658 0.8658 0.5003 26.6016 68.3146)" class="st0" width="10.1" height="1"/>
		</g>
	</g>
	<g>
		<g>
			
				<rect x="22.5" y="88.4" transform="matrix(0.5003 -0.8658 0.8658 0.5003 -63.2214 68.2313)" class="st0" width="10.1" height="1"/>
		</g>
	</g>
	<g>
		<g>
			<rect x="88.4" y="67.4" transform="matrix(0.5 -0.866 0.866 0.5 -18.3354 113.2253)" class="st0" width="1" height="10.1"/>
		</g>
	</g>
	<g>
		<g>
			<rect x="10.6" y="22.5" transform="matrix(0.5 -0.866 0.866 0.5 -18.2696 23.3732)" class="st0" width="1" height="10.1"/>
		</g>
	</g>
</g>
<g>
	<g>
		
			<rect x="50.7" y="41.4" transform="matrix(0.7071 -0.7071 0.7071 0.7071 -12.6112 53.3677)" class="st0" width="14.8" height="1"/>
	</g>
</g>
<g>
	<g>
		
			<rect x="34.5" y="57.6" transform="matrix(0.7071 -0.7071 0.7071 0.7071 -28.8108 46.6315)" class="st0" width="14.8" height="1"/>
	</g>
</g>
<g>
	<g>
		
			<rect x="57.6" y="50.7" transform="matrix(0.7071 -0.7071 0.7071 0.7071 -24.0775 58.0989)" class="st0" width="1" height="14.8"/>
	</g>
</g>
<g>
	<g>
		
			<rect x="41.4" y="34.5" transform="matrix(0.7071 -0.7071 0.7071 0.7071 -17.3419 41.8992)" class="st0" width="1" height="14.8"/>
	</g>
</g>
</svg>
