<?xml version="1.0" encoding="utf-8"?>
<!-- Generator: Adobe Illustrator 25.0.1, SVG Export Plug-In . SVG Version: 6.00 Build 0)  -->
<svg version="1.1" id="레이어_1" xmlns="http://www.w3.org/2000/svg" xmlns:xlink="http://www.w3.org/1999/xlink" x="0px"
	 y="0px" viewBox="0 0 100 100" style="enable-background:new 0 0 100 100;" xml:space="preserve">
<style type="text/css">
	.st0{fill:#FFFFFF;}
</style>
<g>
	<g>
		<g>
			<g>
				<g>
					<rect x="-71.8" y="0" class="st0" width="1" height="33.2"/>
				</g>
			</g>
			<g>
				<g>
					<rect x="-71.8" y="66.8" class="st0" width="1" height="33.2"/>
				</g>
			</g>
		</g>
		<g>
			<g>
				<g>
					<rect x="-100.8" y="16.7" transform="matrix(0.5 -0.866 0.866 0.5 -78.9846 -70.1646)" class="st0" width="1" height="33.2"/>
				</g>
			</g>
			<g>
				<g>
					<rect x="-42.9" y="50.1" transform="matrix(0.5 -0.866 0.866 0.5 -78.9844 -3.3757)" class="st0" width="1" height="33.2"/>
				</g>
			</g>
		</g>
		<g>
			<g>
				<g>
					
						<rect x="-116.9" y="66.2" transform="matrix(0.8661 -0.4999 0.4999 0.8661 -46.7793 -41.1853)" class="st0" width="33.2" height="1"/>
				</g>
			</g>
			<g>
				<g>
					
						<rect x="-59" y="32.8" transform="matrix(0.8661 -0.4999 0.4999 0.8661 -22.3381 -16.742)" class="st0" width="33.2" height="1"/>
				</g>
			</g>
		</g>
	</g>
	<g>
		<g>
			<g>
				<g>
					<rect x="-34.5" y="49.5" class="st0" width="13.2" height="1"/>
				</g>
			</g>
			<g>
				<g>
					<rect x="-121.3" y="49.5" class="st0" width="13.2" height="1"/>
				</g>
			</g>
		</g>
		<g>
			<g>
				<g>
					
						<rect x="-56.2" y="11.9" transform="matrix(0.5003 -0.8658 0.8658 0.5003 -35.5563 -36.7643)" class="st0" width="13.2" height="1"/>
				</g>
			</g>
			<g>
				<g>
					
						<rect x="-99.6" y="87.1" transform="matrix(0.5004 -0.8658 0.8658 0.5004 -122.3399 -36.7823)" class="st0" width="13.2" height="1"/>
				</g>
			</g>
		</g>
		<g>
			<g>
				<g>
					<rect x="-93.5" y="5.8" transform="matrix(0.866 -0.5 0.5 0.866 -18.6771 -44.855)" class="st0" width="1" height="13.2"/>
				</g>
			</g>
			<g>
				<g>
					<rect x="-50.1" y="81" transform="matrix(0.866 -0.5 0.5 0.866 -50.4557 -13.0784)" class="st0" width="1" height="13.2"/>
				</g>
			</g>
		</g>
	</g>
	<g>
		<g>
			<path class="st0" d="M-71.3,55.8c-3.2,0-5.8-2.6-5.8-5.8c0-3.2,2.6-5.8,5.8-5.8c3.2,0,5.8,2.6,5.8,5.8
				C-65.5,53.2-68.1,55.8-71.3,55.8z M-71.3,45.2c-2.6,0-4.8,2.1-4.8,4.8c0,2.6,2.1,4.8,4.8,4.8c2.6,0,4.8-2.1,4.8-4.8
				C-66.5,47.4-68.7,45.2-71.3,45.2z"/>
		</g>
	</g>
</g>
<g>
	<g>
		<g>
			<rect x="-50.3" y="101.3" class="st0" width="1.1" height="14"/>
		</g>
	</g>
	<g>
		<g>
			<rect x="-50.3" y="126.1" class="st0" width="1.1" height="14"/>
		</g>
	</g>
	<g>
		<g>
			
				<rect x="-58.3" y="103.4" transform="matrix(0.8661 -0.4999 0.4999 0.8661 -61.0924 -14.6097)" class="st0" width="1.1" height="6.5"/>
		</g>
	</g>
	<g>
		<g>
			<rect x="-42.2" y="131.5" transform="matrix(0.866 -0.5 0.5 0.866 -72.9404 -2.7672)" class="st0" width="1.1" height="6.5"/>
		</g>
	</g>
	<g>
		<g>
			
				<rect x="-64.3" y="109.4" transform="matrix(0.4999 -0.8661 0.8661 0.4999 -129.4157 1.1254)" class="st0" width="1.1" height="6.5"/>
		</g>
	</g>
	<g>
		<g>
			<rect x="-36.2" y="125.5" transform="matrix(0.5 -0.866 0.866 0.5 -129.4081 33.4762)" class="st0" width="1.1" height="6.5"/>
		</g>
	</g>
	<g>
		<g>
			<rect x="-69.2" y="120.2" class="st0" width="14" height="1.1"/>
		</g>
	</g>
	<g>
		<g>
			<rect x="-44.3" y="120.2" class="st0" width="14" height="1.1"/>
		</g>
	</g>
	<g>
		<g>
			
				<rect x="-67" y="128.3" transform="matrix(0.8661 -0.4999 0.4999 0.8661 -72.9274 -14.6105)" class="st0" width="6.5" height="1.1"/>
		</g>
	</g>
	<g>
		<g>
			
				<rect x="-39" y="112.1" transform="matrix(0.8661 -0.4999 0.4999 0.8661 -61.0899 -2.7688)" class="st0" width="6.5" height="1.1"/>
		</g>
	</g>
	<g>
		<g>
			
				<rect x="-61.1" y="134.2" transform="matrix(0.5003 -0.8658 0.8658 0.5003 -145.5411 17.2652)" class="st0" width="6.5" height="1.1"/>
		</g>
	</g>
	<g>
		<g>
			
				<rect x="-44.9" y="106.2" transform="matrix(0.5003 -0.8658 0.8658 0.5003 -113.1962 17.2712)" class="st0" width="6.5" height="1.1"/>
		</g>
	</g>
</g>
<g>
	<g>
		<g>
			<g>
				<rect x="-3.7" y="110.6" class="st0" width="0.9" height="2.9"/>
			</g>
		</g>
		<g>
			<g>
				<rect x="-3.7" y="124.2" class="st0" width="0.9" height="2.9"/>
			</g>
		</g>
	</g>
	<g>
		<g>
			<g>
				
					<rect x="-7" y="111.5" transform="matrix(0.866 -0.5001 0.5001 0.866 -57.3812 11.8484)" class="st0" width="0.9" height="2.9"/>
			</g>
		</g>
		<g>
			<g>
				
					<rect x="-0.3" y="123.2" transform="matrix(0.866 -0.5001 0.5001 0.866 -62.3354 16.8032)" class="st0" width="0.9" height="2.9"/>
			</g>
		</g>
	</g>
	<g>
		<g>
			<g>
				<rect x="-9.5" y="114" transform="matrix(0.5 -0.866 0.866 0.5 -104.5083 49.8685)" class="st0" width="0.9" height="2.9"/>
			</g>
		</g>
		<g>
			<g>
				<rect x="2.2" y="120.8" transform="matrix(0.5 -0.866 0.866 0.5 -104.5085 63.4011)" class="st0" width="0.9" height="2.9"/>
			</g>
		</g>
	</g>
	<g>
		<g>
			<g>
				<rect x="-11.4" y="118.4" class="st0" width="2.9" height="0.9"/>
			</g>
		</g>
		<g>
			<g>
				<rect x="2.1" y="118.4" class="st0" width="2.9" height="0.9"/>
			</g>
		</g>
	</g>
	<g>
		<g>
			<g>
				
					<rect x="-10.5" y="121.8" transform="matrix(0.8661 -0.4999 0.4999 0.8661 -62.3112 11.8368)" class="st0" width="2.9" height="0.9"/>
			</g>
		</g>
		<g>
			<g>
				
					<rect x="1.2" y="115" transform="matrix(0.8661 -0.4999 0.4999 0.8661 -57.3586 16.7895)" class="st0" width="2.9" height="0.9"/>
			</g>
		</g>
	</g>
	<g>
		<g>
			<g>
				
					<rect x="-8" y="124.2" transform="matrix(0.5003 -0.8658 0.8658 0.5003 -111.2518 56.5999)" class="st0" width="2.9" height="0.9"/>
			</g>
		</g>
		<g>
			<g>
				
					<rect x="-1.3" y="112.5" transform="matrix(0.5003 -0.8658 0.8658 0.5003 -97.7233 56.6018)" class="st0" width="2.9" height="0.9"/>
			</g>
		</g>
	</g>
</g>
<g>
	<g>
		<g>
			<g>
				<rect x="45.2" y="130.2" class="st0" width="13.1" height="1.1"/>
			</g>
		</g>
		<g>
			<g>
				<rect x="16.5" y="130.2" class="st0" width="13.1" height="1.1"/>
			</g>
		</g>
	</g>
	<g>
		<g>
			<g>
				<rect x="38" y="117.7" transform="matrix(0.5 -0.866 0.866 0.5 -80.1368 97.7517)" class="st0" width="13.1" height="1.1"/>
			</g>
		</g>
		<g>
			<g>
				<rect x="23.7" y="142.6" transform="matrix(0.5 -0.866 0.866 0.5 -108.9206 97.7454)" class="st0" width="13.1" height="1.1"/>
			</g>
		</g>
	</g>
	<g>
		<g>
			<g>
				
					<rect x="29.6" y="111.7" transform="matrix(0.8661 -0.4999 0.4999 0.8661 -55.0833 30.9337)" class="st0" width="1.1" height="13.1"/>
			</g>
		</g>
		<g>
			<g>
				
					<rect x="44" y="136.7" transform="matrix(0.8661 -0.4999 0.4999 0.8661 -65.618 41.4673)" class="st0" width="1.1" height="13.1"/>
			</g>
		</g>
	</g>
	<g>
		<g>
			<path class="st0" d="M33.6,130.7c0-2.1,1.7-3.8,3.8-3.8c2.1,0,3.8,1.7,3.8,3.8s-1.7,3.8-3.8,3.8
				C35.3,134.5,33.6,132.8,33.6,130.7z M40,130.7c0-1.4-1.2-2.6-2.6-2.6c-1.4,0-2.6,1.2-2.6,2.6c0,1.4,1.2,2.6,2.6,2.6
				C38.8,133.4,40,132.2,40,130.7z"/>
		</g>
	</g>
</g>
<g>
	<g>
		<g>
			<rect x="49.5" y="0" class="st0" width="1" height="39.3"/>
		</g>
	</g>
	<g>
		<g>
			<rect x="49.5" y="60.7" class="st0" width="1" height="39.3"/>
		</g>
	</g>
	<g>
		<g>
			<rect x="60.7" y="49.5" class="st0" width="39.3" height="1"/>
		</g>
	</g>
	<g>
		<g>
			<rect y="49.5" class="st0" width="39.3" height="1"/>
		</g>
	</g>
	<g>
		<g>
			<g>
				<rect x="83.9" y="27" transform="matrix(0.8661 -0.4999 0.4999 0.8661 -1.8486 48.1448)" class="st0" width="10.1" height="1"/>
			</g>
		</g>
		<g>
			<g>
				<rect x="6" y="72" transform="matrix(0.8661 -0.4999 0.4999 0.8661 -34.7506 15.2401)" class="st0" width="10.1" height="1"/>
			</g>
		</g>
		<g>
			<g>
				<rect x="72" y="83.9" transform="matrix(0.866 -0.5001 0.5001 0.866 -34.7582 48.1595)" class="st0" width="1" height="10.1"/>
			</g>
		</g>
		<g>
			<g>
				<rect x="27" y="6" transform="matrix(0.866 -0.5 0.5 0.866 -1.8465 15.2457)" class="st0" width="1" height="10.1"/>
			</g>
		</g>
	</g>
	<g>
		<g>
			<g>
				
					<rect x="67.4" y="10.6" transform="matrix(0.5003 -0.8658 0.8658 0.5003 26.6313 68.2836)" class="st0" width="10.1" height="1"/>
			</g>
		</g>
		<g>
			<g>
				
					<rect x="22.5" y="88.4" transform="matrix(0.5003 -0.8658 0.8658 0.5003 -63.2481 68.2667)" class="st0" width="10.1" height="1"/>
			</g>
		</g>
		<g>
			<g>
				<rect x="88.4" y="67.4" transform="matrix(0.5 -0.866 0.866 0.5 -18.302 113.2542)" class="st0" width="1" height="10.1"/>
			</g>
		</g>
		<g>
			<g>
				<rect x="10.6" y="22.5" transform="matrix(0.5 -0.866 0.866 0.5 -18.301 23.3464)" class="st0" width="1" height="10.1"/>
			</g>
		</g>
	</g>
	<g>
		<g>
			
				<rect x="50.7" y="41.4" transform="matrix(0.7071 -0.7071 0.7071 0.7071 -12.5951 53.3619)" class="st0" width="14.8" height="1"/>
		</g>
	</g>
	<g>
		<g>
			
				<rect x="34.5" y="57.6" transform="matrix(0.7071 -0.7071 0.7071 0.7071 -28.8262 46.6384)" class="st0" width="14.8" height="1"/>
		</g>
	</g>
	<g>
		<g>
			
				<rect x="57.6" y="50.7" transform="matrix(0.7071 -0.7071 0.7071 0.7071 -24.0722 58.1135)" class="st0" width="1" height="14.8"/>
		</g>
	</g>
	<g>
		<g>
			
				<rect x="41.4" y="34.5" transform="matrix(0.7071 -0.7071 0.7071 0.7071 -17.3491 41.8832)" class="st0" width="1" height="14.8"/>
		</g>
	</g>
</g>
</svg>
