<?xml version="1.0" encoding="utf-8"?>
<!-- Generator: Adobe Illustrator 25.0.1, SVG Export Plug-In . SVG Version: 6.00 Build 0)  -->
<svg version="1.1" id="레이어_1" xmlns="http://www.w3.org/2000/svg" xmlns:xlink="http://www.w3.org/1999/xlink" x="0px"
	 y="0px" viewBox="0 0 100 100" style="enable-background:new 0 0 100 100;" xml:space="preserve">
<style type="text/css">
	.st0{fill:#FFFFFF;}
</style>
<g>
	<g>
		<g>
			<g>
				<g>
					<rect x="-86.2" y="-83.4" class="st0" width="1" height="33.2"/>
				</g>
			</g>
			<g>
				<g>
					<rect x="-86.2" y="-16.6" class="st0" width="1" height="33.2"/>
				</g>
			</g>
		</g>
		<g>
			<g>
				<g>
					<rect x="-115.1" y="-66.7" transform="matrix(0.5 -0.866 0.866 0.5 -13.936 -124.3209)" class="st0" width="1" height="33.2"/>
				</g>
			</g>
			<g>
				<g>
					<rect x="-57.3" y="-33.3" transform="matrix(0.5 -0.866 0.866 0.5 -13.9359 -57.5319)" class="st0" width="1" height="33.2"/>
				</g>
			</g>
		</g>
		<g>
			<g>
				<g>
					
						<rect x="-131.2" y="-17.2" transform="matrix(0.8661 -0.4999 0.4999 0.8661 -7.0054 -59.5435)" class="st0" width="33.2" height="1"/>
				</g>
			</g>
			<g>
				<g>
					
						<rect x="-73.4" y="-50.6" transform="matrix(0.8661 -0.4999 0.4999 0.8661 17.4357 -35.1002)" class="st0" width="33.2" height="1"/>
				</g>
			</g>
		</g>
	</g>
	<g>
		<g>
			<g>
				<g>
					<rect x="-48.9" y="-33.9" class="st0" width="13.2" height="1"/>
				</g>
			</g>
			<g>
				<g>
					<rect x="-135.7" y="-33.9" class="st0" width="13.2" height="1"/>
				</g>
			</g>
		</g>
		<g>
			<g>
				<g>
					
						<rect x="-70.6" y="-71.5" transform="matrix(0.5003 -0.8658 0.8658 0.5003 29.4805 -90.8885)" class="st0" width="13.2" height="1"/>
				</g>
			</g>
			<g>
				<g>
					
						<rect x="-114" y="3.7" transform="matrix(0.5004 -0.8658 0.8658 0.5004 -57.3038 -90.9048)" class="st0" width="13.2" height="1"/>
				</g>
			</g>
		</g>
		<g>
			<g>
				<g>
					<rect x="-107.9" y="-77.6" transform="matrix(0.866 -0.5 0.5 0.866 21.1024 -63.218)" class="st0" width="1" height="13.2"/>
				</g>
			</g>
			<g>
				<g>
					<rect x="-64.5" y="-2.4" transform="matrix(0.866 -0.5 0.5 0.866 -10.6751 -31.4423)" class="st0" width="1" height="13.2"/>
				</g>
			</g>
		</g>
	</g>
	<g>
		<g>
			<path class="st0" d="M-85.7-27.6c-3.2,0-5.8-2.6-5.8-5.8c0-3.2,2.6-5.8,5.8-5.8c3.2,0,5.8,2.6,5.8,5.8
				C-79.9-30.2-82.5-27.6-85.7-27.6z M-85.7-38.2c-2.6,0-4.8,2.1-4.8,4.8c0,2.6,2.1,4.8,4.8,4.8c2.6,0,4.8-2.1,4.8-4.8
				C-80.9-36-83.1-38.2-85.7-38.2z"/>
		</g>
	</g>
</g>
<g>
	<g>
		<g>
			<rect x="-80.4" y="38.6" class="st0" width="1.1" height="14"/>
		</g>
	</g>
	<g>
		<g>
			<rect x="-80.4" y="63.5" class="st0" width="1.1" height="14"/>
		</g>
	</g>
	<g>
		<g>
			
				<rect x="-88.5" y="40.8" transform="matrix(0.8661 -0.4999 0.4999 0.8661 -33.8237 -38.0907)" class="st0" width="1.1" height="6.5"/>
		</g>
	</g>
	<g>
		<g>
			<rect x="-72.4" y="68.8" transform="matrix(0.866 -0.5 0.5 0.866 -45.67 -26.2508)" class="st0" width="1.1" height="6.5"/>
		</g>
	</g>
	<g>
		<g>
			
				<rect x="-94.5" y="46.7" transform="matrix(0.4999 -0.8661 0.8661 0.4999 -90.2689 -56.338)" class="st0" width="1.1" height="6.5"/>
		</g>
	</g>
	<g>
		<g>
			<rect x="-66.4" y="62.9" transform="matrix(0.5 -0.866 0.866 0.5 -90.2617 -23.9823)" class="st0" width="1.1" height="6.5"/>
		</g>
	</g>
	<g>
		<g>
			<rect x="-99.4" y="57.6" class="st0" width="14" height="1.1"/>
		</g>
	</g>
	<g>
		<g>
			<rect x="-74.5" y="57.6" class="st0" width="14" height="1.1"/>
		</g>
	</g>
	<g>
		<g>
			
				<rect x="-97.2" y="65.6" transform="matrix(0.8661 -0.4999 0.4999 0.8661 -45.6605 -38.0889)" class="st0" width="6.5" height="1.1"/>
		</g>
	</g>
	<g>
		<g>
			
				<rect x="-69.2" y="49.5" transform="matrix(0.8661 -0.4999 0.4999 0.8661 -33.8222 -26.2484)" class="st0" width="6.5" height="1.1"/>
		</g>
	</g>
	<g>
		<g>
			
				<rect x="-91.3" y="71.6" transform="matrix(0.5003 -0.8658 0.8658 0.5003 -106.3966 -40.167)" class="st0" width="6.5" height="1.1"/>
		</g>
	</g>
	<g>
		<g>
			
				<rect x="-75.1" y="43.5" transform="matrix(0.5003 -0.8658 0.8658 0.5003 -74.0517 -40.1609)" class="st0" width="6.5" height="1.1"/>
		</g>
	</g>
</g>
<g>
	<g>
		<g>
			<g>
				<rect x="-52.5" y="110.1" class="st0" width="0.9" height="2.9"/>
			</g>
		</g>
		<g>
			<g>
				<rect x="-52.5" y="123.6" class="st0" width="0.9" height="2.9"/>
			</g>
		</g>
	</g>
	<g>
		<g>
			<g>
				
					<rect x="-55.9" y="111" transform="matrix(0.866 -0.5001 0.5001 0.866 -63.6542 -12.663)" class="st0" width="0.9" height="2.9"/>
			</g>
		</g>
		<g>
			<g>
				
					<rect x="-49.1" y="122.7" transform="matrix(0.866 -0.5001 0.5001 0.866 -68.6084 -7.7081)" class="st0" width="0.9" height="2.9"/>
			</g>
		</g>
	</g>
	<g>
		<g>
			<g>
				<rect x="-58.4" y="113.5" transform="matrix(0.5 -0.866 0.866 0.5 -128.4583 7.2766)" class="st0" width="0.9" height="2.9"/>
			</g>
		</g>
		<g>
			<g>
				<rect x="-46.7" y="120.2" transform="matrix(0.5 -0.866 0.866 0.5 -128.4587 20.8092)" class="st0" width="0.9" height="2.9"/>
			</g>
		</g>
	</g>
	<g>
		<g>
			<g>
				<rect x="-60.3" y="117.8" class="st0" width="2.9" height="0.9"/>
			</g>
		</g>
		<g>
			<g>
				<rect x="-46.7" y="117.8" class="st0" width="2.9" height="0.9"/>
			</g>
		</g>
	</g>
	<g>
		<g>
			<g>
				
					<rect x="-59.4" y="121.2" transform="matrix(0.8661 -0.4999 0.4999 0.8661 -68.5789 -12.6651)" class="st0" width="2.9" height="0.9"/>
			</g>
		</g>
		<g>
			<g>
				
					<rect x="-47.6" y="114.4" transform="matrix(0.8661 -0.4999 0.4999 0.8661 -63.6261 -7.7123)" class="st0" width="2.9" height="0.9"/>
			</g>
		</g>
	</g>
	<g>
		<g>
			<g>
				
					<rect x="-56.9" y="123.7" transform="matrix(0.5003 -0.8658 0.8658 0.5003 -135.1879 14.0162)" class="st0" width="2.9" height="0.9"/>
			</g>
		</g>
		<g>
			<g>
				
					<rect x="-50.1" y="112" transform="matrix(0.5003 -0.8658 0.8658 0.5003 -121.6591 14.0183)" class="st0" width="2.9" height="0.9"/>
			</g>
		</g>
	</g>
</g>
<g>
	<g>
		<g>
			<g>
				<rect x="57.9" y="49.4" class="st0" width="13.1" height="1.1"/>
			</g>
		</g>
		<g>
			<g>
				<rect x="29.1" y="49.4" class="st0" width="13.1" height="1.1"/>
			</g>
		</g>
	</g>
	<g>
		<g>
			<g>
				<rect x="50.7" y="37" transform="matrix(0.5 -0.866 0.866 0.5 -3.9087 68.3012)" class="st0" width="13.1" height="1.1"/>
			</g>
		</g>
		<g>
			<g>
				<rect x="36.3" y="61.9" transform="matrix(0.5 -0.866 0.866 0.5 -32.6947 68.2978)" class="st0" width="13.1" height="1.1"/>
			</g>
		</g>
	</g>
	<g>
		<g>
			<g>
				
					<rect x="42.2" y="31" transform="matrix(0.8661 -0.4999 0.4999 0.8661 -13.032 26.4243)" class="st0" width="1.1" height="13.1"/>
			</g>
		</g>
		<g>
			<g>
				
					<rect x="56.6" y="55.9" transform="matrix(0.8661 -0.4999 0.4999 0.8661 -23.5667 36.9579)" class="st0" width="1.1" height="13.1"/>
			</g>
		</g>
	</g>
	<g>
		<g>
			<path class="st0" d="M46.2,50c0-2.1,1.7-3.8,3.8-3.8c2.1,0,3.8,1.7,3.8,3.8c0,2.1-1.7,3.8-3.8,3.8C47.9,53.8,46.2,52.1,46.2,50z
				 M52.6,50c0-1.4-1.2-2.6-2.6-2.6c-1.4,0-2.6,1.2-2.6,2.6s1.2,2.6,2.6,2.6C51.4,52.6,52.6,51.4,52.6,50z"/>
		</g>
	</g>
</g>
<g>
	<g>
		<g>
			<rect x="22.5" y="-151.8" class="st0" width="1" height="39.3"/>
		</g>
	</g>
	<g>
		<g>
			<rect x="22.5" y="-91.1" class="st0" width="1" height="39.3"/>
		</g>
	</g>
	<g>
		<g>
			<rect x="33.7" y="-102.4" class="st0" width="39.3" height="1"/>
		</g>
	</g>
	<g>
		<g>
			<rect x="-27" y="-102.4" class="st0" width="39.3" height="1"/>
		</g>
	</g>
	<g>
		<g>
			<g>
				
					<rect x="56.9" y="-124.8" transform="matrix(0.8661 -0.4999 0.4999 0.8661 70.4404 14.3108)" class="st0" width="10.1" height="1"/>
			</g>
		</g>
		<g>
			<g>
				
					<rect x="-21" y="-79.9" transform="matrix(0.8661 -0.4999 0.4999 0.8661 37.5385 -18.5939)" class="st0" width="10.1" height="1"/>
			</g>
		</g>
		<g>
			<g>
				<rect x="45" y="-67.9" transform="matrix(0.866 -0.5001 0.5001 0.866 37.5485 14.3107)" class="st0" width="1" height="10.1"/>
			</g>
		</g>
		<g>
			<g>
				<rect x="0" y="-145.8" transform="matrix(0.866 -0.5 0.5 0.866 70.4597 -18.6027)" class="st0" width="1" height="10.1"/>
			</g>
		</g>
	</g>
	<g>
		<g>
			<g>
				
					<rect x="40.4" y="-141.3" transform="matrix(0.5003 -0.8658 0.8658 0.5003 144.6027 -30.9623)" class="st0" width="10.1" height="1"/>
			</g>
		</g>
		<g>
			<g>
				
					<rect x="-4.5" y="-63.4" transform="matrix(0.5003 -0.8658 0.8658 0.5003 54.7236 -30.9801)" class="st0" width="10.1" height="1"/>
			</g>
		</g>
		<g>
			<g>
				<rect x="61.4" y="-84.4" transform="matrix(0.5 -0.866 0.866 0.5 99.689 13.9543)" class="st0" width="1" height="10.1"/>
			</g>
		</g>
		<g>
			<g>
				<rect x="-16.4" y="-129.4" transform="matrix(0.5 -0.866 0.866 0.5 99.6899 -75.9535)" class="st0" width="1" height="10.1"/>
			</g>
		</g>
	</g>
	<g>
		<g>
			
				<rect x="23.7" y="-110.5" transform="matrix(0.7071 -0.7071 0.7071 0.7071 86.86 -10.2035)" class="st0" width="14.8" height="1"/>
		</g>
	</g>
	<g>
		<g>
			
				<rect x="7.5" y="-94.2" transform="matrix(0.7071 -0.7071 0.7071 0.7071 70.6285 -16.9263)" class="st0" width="14.8" height="1"/>
		</g>
	</g>
	<g>
		<g>
			
				<rect x="30.6" y="-101.1" transform="matrix(0.7071 -0.7071 0.7071 0.7071 75.3803 -5.4482)" class="st0" width="1" height="14.8"/>
		</g>
	</g>
	<g>
		<g>
			
				<rect x="14.4" y="-117.4" transform="matrix(0.7071 -0.7071 0.7071 0.7071 82.1036 -21.6788)" class="st0" width="1" height="14.8"/>
		</g>
	</g>
</g>
</svg>
