<?xml version="1.0" encoding="utf-8"?>
<!-- Generator: Adobe Illustrator 25.0.1, SVG Export Plug-In . SVG Version: 6.00 Build 0)  -->
<svg version="1.1" id="레이어_1" xmlns="http://www.w3.org/2000/svg" xmlns:xlink="http://www.w3.org/1999/xlink" x="0px"
	 y="0px" viewBox="0 0 100 100" style="enable-background:new 0 0 100 100;" xml:space="preserve">
<style type="text/css">
	.st0{fill:#D2E9FF;}
	.st1{fill:#FFFFFF;}
</style>
<g>
	<g>
		<g>
			<g>
				<rect x="49.5" class="st0" width="1" height="33.2"/>
			</g>
		</g>
		<g>
			<g>
				<rect x="49.5" y="66.8" class="st0" width="1" height="33.2"/>
			</g>
		</g>
	</g>
	<g>
		<g>
			<g>
				<rect x="20.6" y="16.7" transform="matrix(0.5 -0.866 0.866 0.5 -18.2821 34.9034)" class="st0" width="1" height="33.2"/>
			</g>
		</g>
		<g>
			<g>
				<rect x="78.4" y="50.1" transform="matrix(0.5 -0.866 0.866 0.5 -18.3249 101.697)" class="st0" width="1" height="33.2"/>
			</g>
		</g>
	</g>
	<g>
		<g>
			<g>
				
					<rect x="4.5" y="66.2" transform="matrix(0.8661 -0.4999 0.4999 0.8661 -30.5136 19.4776)" class="st0" width="33.2" height="1"/>
			</g>
		</g>
		<g>
			<g>
				<rect x="62.3" y="32.8" transform="matrix(0.8661 -0.4999 0.4999 0.8661 -6.087 43.904)" class="st0" width="33.2" height="1"/>
			</g>
		</g>
	</g>
</g>
<g>
	<g>
		<g>
			<g>
				<rect x="86.8" y="49.5" class="st1" width="13.2" height="1"/>
			</g>
		</g>
		<g>
			<g>
				<rect y="49.5" class="st1" width="13.2" height="1"/>
			</g>
		</g>
	</g>
	<g>
		<g>
			<g>
				
					<rect x="65.1" y="11.9" transform="matrix(0.5003 -0.8658 0.8658 0.5003 25.0788 68.2742)" class="st1" width="13.2" height="1"/>
			</g>
		</g>
		<g>
			<g>
				<rect x="21.7" y="87.1" transform="matrix(0.5004 -0.8658 0.8658 0.5004 -61.7 68.2692)" class="st1" width="13.2" height="1"/>
			</g>
		</g>
	</g>
	<g>
		<g>
			<g>
				<rect x="27.8" y="5.8" transform="matrix(0.866 -0.5 0.5 0.866 -2.4085 15.809)" class="st1" width="1" height="13.2"/>
			</g>
		</g>
		<g>
			<g>
				<rect x="71.2" y="81" transform="matrix(0.866 -0.5 0.5 0.866 -34.1945 47.5885)" class="st1" width="1" height="13.2"/>
			</g>
		</g>
	</g>
</g>
<g>
	<g>
		<path class="st1" d="M50,55.8c-3.2,0-5.8-2.6-5.8-5.8s2.6-5.8,5.8-5.8s5.8,2.6,5.8,5.8S53.2,55.8,50,55.8z M50,45.2
			c-2.6,0-4.8,2.1-4.8,4.8c0,2.6,2.1,4.8,4.8,4.8c2.6,0,4.8-2.1,4.8-4.8C54.8,47.4,52.6,45.2,50,45.2z"/>
	</g>
</g>
<g>
	<g>
		<g>
			<rect x="-50.3" y="101.3" class="st1" width="1.1" height="14"/>
		</g>
	</g>
	<g>
		<g>
			<rect x="-50.3" y="126.1" class="st1" width="1.1" height="14"/>
		</g>
	</g>
	<g>
		<g>
			
				<rect x="-58.3" y="103.4" transform="matrix(0.8661 -0.4999 0.4999 0.8661 -61.0426 -14.6125)" class="st1" width="1.1" height="6.5"/>
		</g>
	</g>
	<g>
		<g>
			<rect x="-42.2" y="131.5" transform="matrix(0.866 -0.5 0.5 0.866 -72.9553 -2.7635)" class="st1" width="1.1" height="6.5"/>
		</g>
	</g>
	<g>
		<g>
			
				<rect x="-64.3" y="109.4" transform="matrix(0.4999 -0.8661 0.8661 0.4999 -129.4333 1.1531)" class="st1" width="1.1" height="6.5"/>
		</g>
	</g>
	<g>
		<g>
			<rect x="-36.3" y="125.5" transform="matrix(0.5 -0.866 0.866 0.5 -129.3449 33.4129)" class="st1" width="1.1" height="6.5"/>
		</g>
	</g>
	<g>
		<g>
			<rect x="-69.2" y="120.2" class="st1" width="14" height="1.1"/>
		</g>
	</g>
	<g>
		<g>
			<rect x="-44.3" y="120.2" class="st1" width="14" height="1.1"/>
		</g>
	</g>
	<g>
		<g>
			
				<rect x="-67" y="128.3" transform="matrix(0.8661 -0.4999 0.4999 0.8661 -72.9479 -14.6024)" class="st1" width="6.5" height="1.1"/>
		</g>
	</g>
	<g>
		<g>
			
				<rect x="-39" y="112.1" transform="matrix(0.8661 -0.4999 0.4999 0.8661 -61.1082 -2.778)" class="st1" width="6.5" height="1.1"/>
		</g>
	</g>
	<g>
		<g>
			
				<rect x="-61.1" y="134.2" transform="matrix(0.5003 -0.8658 0.8658 0.5003 -145.5765 17.28)" class="st1" width="6.5" height="1.1"/>
		</g>
	</g>
	<g>
		<g>
			
				<rect x="-44.9" y="106.2" transform="matrix(0.5003 -0.8658 0.8658 0.5003 -113.21 17.3078)" class="st1" width="6.5" height="1.1"/>
		</g>
	</g>
</g>
<g>
	<g>
		<g>
			<g>
				<rect x="-3.7" y="110.6" class="st1" width="0.9" height="2.9"/>
			</g>
		</g>
		<g>
			<g>
				<rect x="-3.7" y="124.2" class="st1" width="0.9" height="2.9"/>
			</g>
		</g>
	</g>
	<g>
		<g>
			<g>
				
					<rect x="-7" y="111.5" transform="matrix(0.866 -0.5001 0.5001 0.866 -57.3593 11.8524)" class="st1" width="0.9" height="2.9"/>
			</g>
		</g>
		<g>
			<g>
				
					<rect x="-0.3" y="123.2" transform="matrix(0.866 -0.5001 0.5001 0.866 -62.3306 16.7755)" class="st1" width="0.9" height="2.9"/>
			</g>
		</g>
	</g>
	<g>
		<g>
			<g>
				<rect x="-9.5" y="114" transform="matrix(0.5 -0.866 0.866 0.5 -104.492 49.8735)" class="st1" width="0.9" height="2.9"/>
			</g>
		</g>
		<g>
			<g>
				<rect x="2.2" y="120.8" transform="matrix(0.5 -0.866 0.866 0.5 -104.5121 63.4395)" class="st1" width="0.9" height="2.9"/>
			</g>
		</g>
	</g>
	<g>
		<g>
			<g>
				<rect x="-11.4" y="118.4" class="st1" width="2.9" height="0.9"/>
			</g>
		</g>
		<g>
			<g>
				<rect x="2.1" y="118.4" class="st1" width="2.9" height="0.9"/>
			</g>
		</g>
	</g>
	<g>
		<g>
			<g>
				
					<rect x="-10.5" y="121.8" transform="matrix(0.8661 -0.4999 0.4999 0.8661 -62.3178 11.8524)" class="st1" width="2.9" height="0.9"/>
			</g>
		</g>
		<g>
			<g>
				
					<rect x="1.2" y="115" transform="matrix(0.8661 -0.4999 0.4999 0.8661 -57.3607 16.7857)" class="st1" width="2.9" height="0.9"/>
			</g>
		</g>
	</g>
	<g>
		<g>
			<g>
				
					<rect x="-8.1" y="124.2" transform="matrix(0.5003 -0.8658 0.8658 0.5003 -111.2136 56.556)" class="st1" width="2.9" height="0.9"/>
			</g>
		</g>
		<g>
			<g>
				
					<rect x="-1.3" y="112.5" transform="matrix(0.5003 -0.8658 0.8658 0.5003 -97.7513 56.5785)" class="st1" width="2.9" height="0.9"/>
			</g>
		</g>
	</g>
</g>
<g>
	<g>
		<g>
			<g>
				<rect x="45.2" y="130.2" class="st1" width="13.1" height="1.1"/>
			</g>
		</g>
		<g>
			<g>
				<rect x="16.5" y="130.2" class="st1" width="13.1" height="1.1"/>
			</g>
		</g>
	</g>
	<g>
		<g>
			<g>
				<rect x="38" y="117.7" transform="matrix(0.5 -0.866 0.866 0.5 -80.1761 97.7217)" class="st1" width="13.1" height="1.1"/>
			</g>
		</g>
		<g>
			<g>
				<rect x="23.6" y="142.6" transform="matrix(0.5 -0.866 0.866 0.5 -108.8622 97.6902)" class="st1" width="13.1" height="1.1"/>
			</g>
		</g>
	</g>
	<g>
		<g>
			<g>
				
					<rect x="29.6" y="111.7" transform="matrix(0.8661 -0.4999 0.4999 0.8661 -55.0898 30.9071)" class="st1" width="1.1" height="13.1"/>
			</g>
		</g>
		<g>
			<g>
				
					<rect x="44" y="136.7" transform="matrix(0.8661 -0.4999 0.4999 0.8661 -65.6479 41.469)" class="st1" width="1.1" height="13.1"/>
			</g>
		</g>
	</g>
	<g>
		<g>
			<path class="st1" d="M33.6,130.7c0-2.1,1.7-3.8,3.8-3.8s3.8,1.7,3.8,3.8s-1.7,3.8-3.8,3.8S33.6,132.8,33.6,130.7z M40,130.7
				c0-1.4-1.2-2.6-2.6-2.6c-1.4,0-2.6,1.2-2.6,2.6c0,1.4,1.2,2.6,2.6,2.6C38.8,133.4,40,132.2,40,130.7z"/>
		</g>
	</g>
</g>
<g>
	<g>
		<g>
			<rect x="22.5" y="-151.8" class="st1" width="1" height="39.3"/>
		</g>
	</g>
	<g>
		<g>
			<rect x="22.5" y="-91.1" class="st1" width="1" height="39.3"/>
		</g>
	</g>
	<g>
		<g>
			<rect x="33.7" y="-102.4" class="st1" width="39.3" height="1"/>
		</g>
	</g>
	<g>
		<g>
			<rect x="-27" y="-102.4" class="st1" width="39.3" height="1"/>
		</g>
	</g>
	<g>
		<g>
			<g>
				
					<rect x="56.9" y="-124.8" transform="matrix(0.8661 -0.4999 0.4999 0.8661 70.4407 14.325)" class="st1" width="10.1" height="1"/>
			</g>
		</g>
		<g>
			<g>
				
					<rect x="-21" y="-79.9" transform="matrix(0.8661 -0.4999 0.4999 0.8661 37.5476 -18.6134)" class="st1" width="10.1" height="1"/>
			</g>
		</g>
		<g>
			<g>
				<rect x="45" y="-67.9" transform="matrix(0.866 -0.5001 0.5001 0.866 37.5422 14.3377)" class="st1" width="1" height="10.1"/>
			</g>
		</g>
		<g>
			<g>
				<rect x="0" y="-145.8" transform="matrix(0.866 -0.5 0.5 0.866 70.442 -18.5979)" class="st1" width="1" height="10.1"/>
			</g>
		</g>
	</g>
	<g>
		<g>
			<g>
				
					<rect x="40.4" y="-141.3" transform="matrix(0.5003 -0.8658 0.8658 0.5003 144.575 -30.9913)" class="st1" width="10.1" height="1"/>
			</g>
		</g>
		<g>
			<g>
				
					<rect x="-4.5" y="-63.4" transform="matrix(0.5003 -0.8658 0.8658 0.5003 54.7529 -30.9748)" class="st1" width="10.1" height="1"/>
			</g>
		</g>
		<g>
			<g>
				<rect x="61.4" y="-84.4" transform="matrix(0.5 -0.866 0.866 0.5 99.6582 13.9634)" class="st1" width="1" height="10.1"/>
			</g>
		</g>
		<g>
			<g>
				<rect x="-16.4" y="-129.4" transform="matrix(0.5 -0.866 0.866 0.5 99.7239 -75.9888)" class="st1" width="1" height="10.1"/>
			</g>
		</g>
	</g>
	<g>
		<g>
			
				<rect x="23.7" y="-110.5" transform="matrix(0.7071 -0.7071 0.7071 0.7071 86.8644 -10.2413)" class="st1" width="14.8" height="1"/>
		</g>
	</g>
	<g>
		<g>
			
				<rect x="7.5" y="-94.2" transform="matrix(0.7071 -0.7071 0.7071 0.7071 70.6349 -16.9069)" class="st1" width="14.8" height="1"/>
		</g>
	</g>
	<g>
		<g>
			
				<rect x="30.6" y="-101.1" transform="matrix(0.7071 -0.7071 0.7071 0.7071 75.3655 -5.4402)" class="st1" width="1" height="14.8"/>
		</g>
	</g>
	<g>
		<g>
			
				<rect x="14.4" y="-117.4" transform="matrix(0.7071 -0.7071 0.7071 0.7071 82.1305 -21.7105)" class="st1" width="1" height="14.8"/>
		</g>
	</g>
</g>
</svg>
